<svg width="10" height="16" viewBox="0 0 10 16" fill="none" xmlns="http://www.w3.org/2000/svg">
<path d="M5.31235 11.6096L5 11.3597L4.68765 11.6096L2.39595 13.4429L5 11.1644L7.60405 13.4429L5.31235 11.6096ZM0.5 2V1C0.5 0.723858 0.723858 0.5 1 0.5H2C1.17157 0.5 0.5 1.17157 0.5 2ZM8 0.5H9C9.27614 0.5 9.5 0.723858 9.5 1V2C9.5 1.17157 8.82843 0.5 8 0.5Z" fill="#C31815"/>
<path d="M5.31235 11.6096L5 11.3597L4.68765 11.6096L2.39595 13.4429L5 11.1644L7.60405 13.4429L5.31235 11.6096ZM0.5 2V1C0.5 0.723858 0.723858 0.5 1 0.5H2C1.17157 0.5 0.5 1.17157 0.5 2ZM8 0.5H9C9.27614 0.5 9.5 0.723858 9.5 1V2C9.5 1.17157 8.82843 0.5 8 0.5Z" fill="black" fill-opacity="0.2"/>
<path d="M5.31235 11.6096L5 11.3597L4.68765 11.6096L2.39595 13.4429L5 11.1644L7.60405 13.4429L5.31235 11.6096ZM0.5 2V1C0.5 0.723858 0.723858 0.5 1 0.5H2C1.17157 0.5 0.5 1.17157 0.5 2ZM8 0.5H9C9.27614 0.5 9.5 0.723858 9.5 1V2C9.5 1.17157 8.82843 0.5 8 0.5Z" stroke="#C41919"/>
<path d="M5.31235 11.6096L5 11.3597L4.68765 11.6096L2.39595 13.4429L5 11.1644L7.60405 13.4429L5.31235 11.6096ZM0.5 2V1C0.5 0.723858 0.723858 0.5 1 0.5H2C1.17157 0.5 0.5 1.17157 0.5 2ZM8 0.5H9C9.27614 0.5 9.5 0.723858 9.5 1V2C9.5 1.17157 8.82843 0.5 8 0.5Z" stroke="black" stroke-opacity="0.2"/>
</svg>
